<svg width="112" height="90" viewBox="0 0 112 90" fill="none" xmlns="http://www.w3.org/2000/svg">
<path fill-rule="evenodd" clip-rule="evenodd" d="M29.6532 4.82743C28.464 6.61369 27.8293 8.71376 27.8293 10.8621C27.8293 13.7429 28.9695 16.5057 30.9991 18.5427C33.0286 20.5797 35.7814 21.7241 38.6516 21.7241C40.7921 21.7241 42.8845 21.0871 44.6642 19.8935C46.4439 18.7 47.8311 17.0036 48.6502 15.0188C49.4693 13.034 49.6836 10.85 49.266 8.74299C48.8485 6.63595 47.8177 4.70052 46.3042 3.18143C44.7907 1.66234 42.8623 0.627832 40.763 0.208716C38.6636 -0.210399 36.4876 0.00470634 34.5101 0.82683C32.5326 1.64895 30.8423 3.04117 29.6532 4.82743ZM6.18453 27.931C4.77462 27.931 3.407 28.4144 2.30835 29.3013C1.2097 30.1882 0.445977 31.4253 0.143754 32.8075C-0.158468 34.1896 0.0189565 35.634 0.646624 36.9011C1.27429 38.1682 2.31451 39.1821 3.59489 39.7746H3.61808L24.4473 48.9802L15.9749 81.2948C15.3283 82.7794 15.2858 84.4589 15.8563 85.9745C16.4268 87.4902 17.5652 88.7219 19.0284 89.4064C19.8461 89.7961 20.7398 89.9989 21.6451 90C22.8108 90.0017 23.9534 89.6726 24.9409 89.0508C25.9284 88.4289 26.7206 87.5396 27.2263 86.4853L38.6516 66.7241L50.0847 86.5086C50.7958 87.9605 52.0436 89.0763 53.5623 89.6184C54.2829 89.8756 55.0373 89.994 55.7878 89.9754C55.967 89.9915 56.1471 89.9998 56.3276 90C57.4934 90.0017 58.6359 89.6726 59.6234 89.0508C60.611 88.4289 61.4032 87.5396 61.9089 86.4853L73.3342 66.7241L84.7673 86.5086C85.4784 87.9605 86.7262 89.0763 88.2449 89.6184C89.7636 90.1605 91.4332 90.0861 92.898 89.4109C94.3629 88.7357 95.5071 87.5132 96.0871 86.0038C96.6671 84.4943 96.637 82.8172 96.0032 81.3297L87.5308 49.0151L108.403 39.7978C109.698 39.2183 110.75 38.2018 111.376 36.9248C112.002 35.6478 112.163 34.191 111.831 32.8073C111.549 31.4169 110.793 30.1687 109.692 29.2785C108.591 28.3882 107.215 27.9116 105.801 27.931H71.2848C71.2296 27.9303 71.1742 27.9303 71.1189 27.931L6.18453 27.931ZM62.5118 10.8621C62.5118 8.71376 63.1466 6.61369 64.3357 4.82743C65.5249 3.04117 67.2151 1.64895 69.1927 0.82683C71.1702 0.00470634 73.3462 -0.210399 75.4455 0.208716C77.5449 0.627832 79.4732 1.66234 80.9868 3.18143C82.5003 4.70052 83.531 6.63595 83.9486 8.74299C84.3662 10.85 84.1519 13.034 83.3328 15.0188C82.5136 17.0036 81.1265 18.7 79.3468 19.8935C77.5671 21.0871 75.4747 21.7241 73.3342 21.7241C70.4639 21.7241 67.7112 20.5797 65.6816 18.5427C63.652 16.5057 62.5118 13.7429 62.5118 10.8621ZM57.2278 70.4195C58.0732 69.9703 77.9245 59.0935 77.9245 45.6559C77.921 42.5004 76.6705 39.4752 74.4474 37.2439C72.2243 35.0126 69.2101 33.7575 66.0662 33.754C62.1166 33.754 58.6585 35.4586 56.5029 38.3401C54.3474 35.4586 50.8893 33.754 46.9397 33.754C43.7958 33.7575 40.7816 35.0126 38.5585 37.2439C36.3354 39.4752 35.0849 42.5004 35.0814 45.6559C35.0814 59.0935 54.9327 69.9703 55.7781 70.4195C56.0009 70.5398 56.2499 70.6027 56.5029 70.6027C56.756 70.6027 57.005 70.5398 57.2278 70.4195Z" fill="#774898"/>
</svg>
