<svg width="142" height="35" viewBox="0 0 142 35" fill="none" xmlns="http://www.w3.org/2000/svg">
<path fill-rule="evenodd" clip-rule="evenodd" d="M11.6749 1.87733C11.2067 2.57199 10.9568 3.38868 10.9568 4.22414C10.9568 5.34445 11.4057 6.41888 12.2048 7.21105C13.0039 8.00323 14.0877 8.44828 15.2177 8.44828C16.0605 8.44828 16.8843 8.20053 17.585 7.73638C18.2857 7.27223 18.8318 6.61251 19.1543 5.84065C19.4768 5.06879 19.5612 4.21945 19.3968 3.40005C19.2324 2.58065 18.8266 1.82798 18.2307 1.23722C17.6348 0.646467 16.8755 0.244157 16.049 0.0811675C15.2225 -0.0818218 14.3657 0.00183026 13.5872 0.321545C12.8086 0.64126 12.1431 1.18268 11.6749 1.87733ZM2.43495 10.8621C1.87984 10.862 1.34139 11.0501 0.908834 11.395C0.476278 11.7399 0.175588 12.2209 0.0565983 12.7585C-0.0623914 13.296 0.00746346 13.8577 0.254586 14.3504C0.501708 14.8432 0.91126 15.2375 1.41536 15.4679H1.4245L9.62527 19.0478L6.28957 31.6147C6.035 32.192 6.01824 32.8451 6.24287 33.4345C6.4675 34.024 6.91571 34.5029 7.49176 34.7692C7.81372 34.9207 8.16559 34.9996 8.52199 35C8.98098 35.0007 9.43081 34.8727 9.8196 34.6309C10.2084 34.389 10.5203 34.0432 10.7194 33.6332L15.2177 25.9483L19.7191 33.6422C19.9991 34.2069 20.4904 34.6408 21.0883 34.8516C21.372 34.9516 21.669 34.9977 21.9645 34.9904C22.0351 34.9967 22.106 34.9999 22.1771 35C22.636 35.0007 23.0859 34.8727 23.4747 34.6309C23.8635 34.389 24.1754 34.0432 24.3745 33.6332L28.8728 25.9483L33.3742 33.6422C33.6542 34.2069 34.1454 34.6408 34.7434 34.8516C35.3413 35.0624 35.9987 35.0335 36.5754 34.7709C37.1521 34.5083 37.6026 34.0329 37.831 33.4459C38.0593 32.8589 38.0475 32.2067 37.7979 31.6282L34.4622 19.0614L42.6798 15.4769C43.1897 15.2516 43.6039 14.8563 43.8505 14.3596C44.0971 13.863 44.1604 13.2965 44.0296 12.7584C43.9186 12.2177 43.6208 11.7323 43.1873 11.3861C42.7539 11.0398 42.2122 10.8545 41.6556 10.8621H28.0659C28.0442 10.8618 28.0224 10.8618 28.0006 10.8621L2.43495 10.8621ZM24.6119 4.22414C24.6119 3.38868 24.8618 2.57199 25.33 1.87733C25.7982 1.18268 26.4636 0.64126 27.2422 0.321545C28.0208 0.00183023 28.8775 -0.0818217 29.7041 0.0811675C30.5306 0.244157 31.2898 0.646467 31.8857 1.23722C32.4816 1.82798 32.8875 2.58065 33.0519 3.40005C33.2163 4.21945 33.1319 5.06879 32.8094 5.84065C32.4869 6.61251 31.9408 7.27223 31.2401 7.73638C30.5393 8.20053 29.7155 8.44828 28.8728 8.44828C27.7427 8.44828 26.659 8.00323 25.8599 7.21105C25.0608 6.41887 24.6119 5.34445 24.6119 4.22414ZM22.5315 27.3853C22.8643 27.2107 30.6801 22.9808 30.6801 17.7551C30.6787 16.5279 30.1864 15.3515 29.3111 14.4837C28.4358 13.616 27.2491 13.1279 26.0113 13.1266C24.4562 13.1266 23.0948 13.7895 22.2461 14.91C21.3974 13.7895 20.0359 13.1266 18.4809 13.1266C17.2431 13.1279 16.0564 13.616 15.1811 14.4837C14.3058 15.3515 13.8135 16.5279 13.8121 17.7551C13.8121 22.9808 21.6278 27.2107 21.9607 27.3853C22.0484 27.4321 22.1465 27.4566 22.2461 27.4566C22.3457 27.4566 22.4438 27.4321 22.5315 27.3853Z" fill="#774898"/>
<path d="M49.9526 24.9487C49.5591 24.9487 49.2393 24.8586 48.9934 24.6785C48.7638 24.4983 48.6244 24.2609 48.5753 23.9661C48.5261 23.655 48.5835 23.3111 48.7474 22.9344L55.2405 8.56426C55.4537 8.08935 55.7078 7.75364 56.003 7.55713C56.3145 7.34423 56.667 7.23779 57.0606 7.23779C57.4377 7.23779 57.7738 7.34423 58.0689 7.55713C58.3805 7.75364 58.6428 8.08935 58.856 8.56426L65.3737 22.9344C65.554 23.3111 65.6196 23.655 65.5704 23.9661C65.5213 24.2773 65.3819 24.5229 65.1523 24.703C64.9228 24.8668 64.6194 24.9487 64.2423 24.9487C63.7832 24.9487 63.4225 24.8422 63.1601 24.6293C62.9142 24.4001 62.6928 24.0562 62.4961 23.5976L60.8974 19.8884L62.2255 20.7482H51.8464L53.1745 19.8884L51.6004 23.5976C51.3873 24.0726 51.1659 24.4165 50.9364 24.6293C50.7068 24.8422 50.3789 24.9487 49.9526 24.9487ZM57.0114 10.8487L53.568 19.0287L52.9286 18.2426H61.1433L60.5285 19.0287L57.0606 10.8487H57.0114Z" fill="#774898"/>
<path d="M66.3117 29.3948C65.951 29.4276 65.6559 29.3703 65.4263 29.2229C65.1968 29.0919 65.041 28.9199 64.959 28.707C64.8606 28.4941 64.8278 28.2731 64.8606 28.0438C64.8934 27.8145 64.9918 27.6098 65.1558 27.4297C65.3033 27.2659 65.5083 27.1758 65.7707 27.1595C66.5085 27.094 67.0414 26.8811 67.3693 26.5208C67.7137 26.1769 67.8858 25.6447 67.8858 24.9241V14.0912C67.8858 13.5836 68.017 13.1987 68.2793 12.9367C68.5581 12.6747 68.9434 12.5437 69.4353 12.5437C69.9272 12.5437 70.3043 12.6747 70.5667 12.9367C70.829 13.1987 70.9602 13.5836 70.9602 14.0912V24.6539C70.9602 25.702 70.788 26.5617 70.4437 27.2332C70.1158 27.9046 69.6075 28.4123 68.9188 28.7562C68.2466 29.1001 67.3775 29.3129 66.3117 29.3948ZM69.4107 10.2838C68.8368 10.2838 68.3859 10.1446 68.058 9.86617C67.7465 9.5714 67.5907 9.17019 67.5907 8.66252C67.5907 8.13848 67.7465 7.73726 68.058 7.45887C68.3859 7.18047 68.8368 7.04128 69.4107 7.04128C70.001 7.04128 70.4519 7.18047 70.7635 7.45887C71.075 7.73726 71.2308 8.13848 71.2308 8.66252C71.2308 9.17019 71.075 9.5714 70.7635 9.86617C70.4519 10.1446 70.001 10.2838 69.4107 10.2838Z" fill="#774898"/>
<path d="M78.5057 24.9978C77.5055 24.9978 76.6775 24.8177 76.0216 24.4574C75.3657 24.0807 74.8738 23.5239 74.5459 22.787C74.2344 22.0501 74.0786 21.133 74.0786 20.0358V14.0912C74.0786 13.5672 74.2098 13.1824 74.4721 12.9367C74.7345 12.6747 75.1116 12.5437 75.6035 12.5437C76.0954 12.5437 76.4725 12.6747 76.7349 12.9367C77.0136 13.1824 77.153 13.5672 77.153 14.0912V20.0849C77.153 20.9365 77.3251 21.567 77.6695 21.9764C78.0138 22.3858 78.5631 22.5905 79.3173 22.5905C80.1372 22.5905 80.8094 22.3121 81.3341 21.7553C81.8588 21.1822 82.1212 20.4288 82.1212 19.4954V14.0912C82.1212 13.5672 82.2524 13.1824 82.5147 12.9367C82.7771 12.6747 83.1542 12.5437 83.6461 12.5437C84.138 12.5437 84.5151 12.6747 84.7774 12.9367C85.0562 13.1824 85.1956 13.5672 85.1956 14.0912V23.3766C85.1956 24.4246 84.6955 24.9487 83.6953 24.9487C83.2198 24.9487 82.8508 24.8177 82.5885 24.5557C82.3261 24.2773 82.195 23.8842 82.195 23.3766V21.5097L82.5393 22.2466C82.195 23.1309 81.6703 23.8105 80.9652 24.2854C80.2765 24.7604 79.4567 24.9978 78.5057 24.9978Z" fill="#774898"/>
<path d="M93.0193 24.9978C91.9699 24.9978 91.0435 24.744 90.24 24.2363C89.453 23.7287 88.8381 23.0081 88.3954 22.0747C87.9527 21.1248 87.7313 20.0113 87.7313 18.7339C87.7313 17.4402 87.9527 16.3348 88.3954 15.4177C88.8381 14.4843 89.453 13.7637 90.24 13.2561C91.0435 12.7484 91.9699 12.4946 93.0193 12.4946C94.0195 12.4946 94.8885 12.7402 95.6264 13.2315C96.3806 13.7228 96.8889 14.3696 97.1513 15.1721H96.8807V8.78534C96.8807 8.27768 97.0119 7.89284 97.2742 7.63082C97.5366 7.3688 97.9137 7.23779 98.4056 7.23779C98.8975 7.23779 99.2746 7.3688 99.537 7.63082C99.8157 7.89284 99.9551 8.27768 99.9551 8.78534V23.3766C99.9551 23.8842 99.8239 24.2773 99.5616 24.5557C99.2992 24.8177 98.9221 24.9487 98.4302 24.9487C97.9383 24.9487 97.5612 24.8177 97.2988 24.5557C97.0365 24.2773 96.9053 23.8842 96.9053 23.3766V21.4605L97.1759 22.1975C96.9299 23.049 96.4298 23.7287 95.6756 24.2363C94.9213 24.744 94.0359 24.9978 93.0193 24.9978ZM93.8801 22.6642C94.4868 22.6642 95.0197 22.5168 95.4788 22.222C95.9379 21.9273 96.2904 21.4933 96.5364 20.9201C96.7987 20.3306 96.9299 19.6018 96.9299 18.7339C96.9299 17.4238 96.6512 16.4494 96.0937 15.8107C95.5362 15.1557 94.7983 14.8282 93.8801 14.8282C93.2734 14.8282 92.7405 14.9756 92.2814 15.2703C91.8223 15.5487 91.4616 15.9827 91.1993 16.5722C90.9533 17.1454 90.8303 17.866 90.8303 18.7339C90.8303 20.0276 91.1091 21.0102 91.6666 21.6816C92.224 22.3367 92.9619 22.6642 93.8801 22.6642Z" fill="#774898"/>
<path d="M107.103 24.9978C106.234 24.9978 105.455 24.834 104.766 24.5065C104.094 24.1626 103.561 23.7041 103.167 23.1309C102.79 22.5578 102.602 21.9109 102.602 21.1903C102.602 20.306 102.831 19.61 103.29 19.1024C103.75 18.5783 104.496 18.2017 105.529 17.9724C106.562 17.7431 107.947 17.6285 109.685 17.6285H110.915V19.3971H109.71C108.693 19.3971 107.881 19.4463 107.275 19.5445C106.668 19.6428 106.234 19.8147 105.971 20.0604C105.725 20.2896 105.602 20.6172 105.602 21.043C105.602 21.5834 105.791 22.0255 106.168 22.3694C106.545 22.7133 107.07 22.8853 107.742 22.8853C108.283 22.8853 108.759 22.7625 109.169 22.5168C109.595 22.2548 109.931 21.9027 110.177 21.4605C110.423 21.0184 110.546 20.5107 110.546 19.9376V17.1127C110.546 16.2938 110.366 15.7043 110.005 15.344C109.644 14.9837 109.037 14.8036 108.185 14.8036C107.709 14.8036 107.193 14.8609 106.635 14.9756C106.094 15.0902 105.52 15.2867 104.914 15.5651C104.602 15.7125 104.323 15.7534 104.077 15.6879C103.848 15.6224 103.668 15.4914 103.536 15.2949C103.405 15.082 103.34 14.8527 103.34 14.6071C103.34 14.3614 103.405 14.124 103.536 13.8947C103.668 13.6491 103.889 13.4689 104.2 13.3543C104.955 13.0432 105.676 12.8221 106.365 12.6911C107.07 12.5601 107.709 12.4946 108.283 12.4946C109.464 12.4946 110.431 12.6747 111.185 13.035C111.956 13.3953 112.53 13.9439 112.907 14.6808C113.284 15.4013 113.473 16.3348 113.473 17.4811V23.3766C113.473 23.8842 113.35 24.2773 113.104 24.5557C112.858 24.8177 112.505 24.9487 112.046 24.9487C111.587 24.9487 111.226 24.8177 110.964 24.5557C110.718 24.2773 110.595 23.8842 110.595 23.3766V22.1975H110.792C110.677 22.7706 110.448 23.2701 110.103 23.6959C109.775 24.1053 109.357 24.4246 108.849 24.6539C108.341 24.8832 107.759 24.9978 107.103 24.9978Z" fill="#774898"/>
<path d="M127.23 24.9978C126.361 24.9978 125.582 24.834 124.894 24.5065C124.221 24.1626 123.689 23.7041 123.295 23.1309C122.918 22.5578 122.729 21.9109 122.729 21.1903C122.729 20.306 122.959 19.61 123.418 19.1024C123.877 18.5783 124.623 18.2017 125.656 17.9724C126.689 17.7431 128.075 17.6285 129.813 17.6285H131.042V19.3971H129.837C128.821 19.3971 128.009 19.4463 127.402 19.5445C126.796 19.6428 126.361 19.8147 126.099 20.0604C125.853 20.2896 125.73 20.6172 125.73 21.043C125.73 21.5834 125.918 22.0255 126.296 22.3694C126.673 22.7133 127.197 22.8853 127.87 22.8853C128.411 22.8853 128.886 22.7625 129.296 22.5168C129.723 22.2548 130.059 21.9027 130.305 21.4605C130.551 21.0184 130.674 20.5107 130.674 19.9376V17.1127C130.674 16.2938 130.493 15.7043 130.132 15.344C129.772 14.9837 129.165 14.8036 128.312 14.8036C127.837 14.8036 127.32 14.8609 126.763 14.9756C126.222 15.0902 125.648 15.2867 125.041 15.5651C124.73 15.7125 124.451 15.7534 124.205 15.6879C123.976 15.6224 123.795 15.4914 123.664 15.2949C123.533 15.082 123.467 14.8527 123.467 14.6071C123.467 14.3614 123.533 14.124 123.664 13.8947C123.795 13.6491 124.016 13.4689 124.328 13.3543C125.082 13.0432 125.804 12.8221 126.492 12.6911C127.197 12.5601 127.837 12.4946 128.411 12.4946C129.591 12.4946 130.559 12.6747 131.313 13.035C132.084 13.3953 132.658 13.9439 133.035 14.6808C133.412 15.4013 133.6 16.3348 133.6 17.4811V23.3766C133.6 23.8842 133.477 24.2773 133.231 24.5557C132.985 24.8177 132.633 24.9487 132.174 24.9487C131.715 24.9487 131.354 24.8177 131.092 24.5557C130.846 24.2773 130.723 23.8842 130.723 23.3766V22.1975H130.919C130.805 22.7706 130.575 23.2701 130.231 23.6959C129.903 24.1053 129.485 24.4246 128.976 24.6539C128.468 24.8832 127.886 24.9978 127.23 24.9978Z" fill="#774898"/>
<path d="M138.246 24.9241C137.754 24.9241 137.377 24.7767 137.114 24.482C136.852 24.1872 136.721 23.7778 136.721 23.2537V14.2386C136.721 13.6982 136.852 13.2888 137.114 13.0104C137.377 12.7156 137.754 12.5683 138.246 12.5683C138.738 12.5683 139.115 12.7156 139.377 13.0104C139.656 13.2888 139.795 13.6982 139.795 14.2386V23.2537C139.795 23.7778 139.664 24.1872 139.402 24.482C139.139 24.7767 138.754 24.9241 138.246 24.9241ZM139.402 10.9961C139.238 11.2254 139.041 11.3564 138.811 11.3892C138.582 11.4219 138.361 11.381 138.147 11.2663C137.934 11.1517 137.778 10.9879 137.68 10.7751C137.598 10.5622 137.623 10.3247 137.754 10.0627L139.623 6.4026C139.771 6.09145 139.967 5.89494 140.213 5.81306C140.459 5.7148 140.713 5.69842 140.976 5.76393C141.238 5.82943 141.46 5.95226 141.64 6.13239C141.837 6.31253 141.951 6.53361 141.984 6.79563C142.033 7.04128 141.968 7.29511 141.787 7.55713L139.402 10.9961Z" fill="#774898"/>
</svg>
