<svg width="48" height="60" viewBox="0 0 48 60" fill="none" xmlns="http://www.w3.org/2000/svg">
<path d="M24 0.25C17.8027 0.25703 11.8613 2.722 7.47914 7.10414C3.097 11.4863 0.63203 17.4277 0.625 23.625C0.625 43.6266 21.875 58.7327 22.7808 59.3648C23.1381 59.6151 23.5638 59.7494 24 59.7494C24.4362 59.7494 24.8619 59.6151 25.2192 59.3648C26.125 58.7327 47.375 43.6266 47.375 23.625C47.368 17.4277 44.903 11.4863 40.5209 7.10414C36.1387 2.722 30.1973 0.25703 24 0.25ZM24 15.125C25.6811 15.125 27.3245 15.6235 28.7223 16.5575C30.1202 17.4915 31.2096 18.819 31.853 20.3722C32.4963 21.9254 32.6646 23.6344 32.3367 25.2833C32.0087 26.9321 31.1992 28.4467 30.0104 29.6354C28.8217 30.8242 27.3071 31.6337 25.6583 31.9617C24.0094 32.2896 22.3004 32.1213 20.7472 31.478C19.194 30.8346 17.8665 29.7452 16.9325 28.3473C15.9985 26.9495 15.5 25.3061 15.5 23.625C15.5 21.3707 16.3955 19.2087 17.9896 17.6146C19.5837 16.0205 21.7457 15.125 24 15.125Z" fill="#E62A76"/>
</svg>
