<svg width="266" height="67" viewBox="0 0 266 67" fill="none" xmlns="http://www.w3.org/2000/svg">
<path fill-rule="evenodd" clip-rule="evenodd" d="M21.8699 3.59375C20.9929 4.92352 20.5247 6.48691 20.5247 8.08621C20.5247 10.2308 21.3657 12.2876 22.8625 13.804C24.3594 15.3205 26.3896 16.1724 28.5065 16.1724C30.0851 16.1724 31.6283 15.6982 32.9409 14.8096C34.2535 13.9211 35.2765 12.6582 35.8806 11.1807C36.4848 9.70311 36.6428 8.07724 36.3349 6.50867C36.0269 4.9401 35.2667 3.49927 34.1504 2.3684C33.0342 1.23752 31.6119 0.467386 30.0636 0.155378C28.5153 -0.15663 26.9105 0.00350364 25.452 0.615529C23.9935 1.22756 22.7469 2.26398 21.8699 3.59375ZM4.56124 20.7931C3.52139 20.7931 2.51274 21.153 1.70246 21.8132C0.892183 22.4734 0.328918 23.3944 0.106022 24.4233C-0.116874 25.4523 0.0139809 26.5275 0.4769 27.4708C0.939819 28.4141 1.70701 29.1689 2.65132 29.61H2.66842L18.0304 36.463L11.7819 60.5195C11.305 61.6247 11.2736 62.8749 11.6944 64.0033C12.1152 65.1316 12.9548 66.0485 14.0339 66.5581C14.637 66.8482 15.2961 66.9991 15.9637 67C16.8235 67.0013 17.6662 66.7563 18.3945 66.2934C19.1228 65.8304 19.7071 65.1684 20.08 64.3835L28.5065 49.6724L36.9386 64.4009C37.4631 65.4817 38.3834 66.3124 39.5035 66.7159C40.0349 66.9074 40.5913 66.9956 41.1448 66.9817C41.2769 66.9937 41.4098 66.9998 41.5429 67C42.4027 67.0013 43.2454 66.7563 43.9737 66.2934C44.702 65.8304 45.2863 65.1684 45.6592 64.3835L54.0857 49.6724L62.5178 64.4008C63.0423 65.4817 63.9626 66.3124 65.0827 66.7159C66.2027 67.1195 67.4341 67.0641 68.5145 66.5615C69.5948 66.0588 70.4387 65.1487 70.8665 64.025C71.2943 62.9013 71.272 61.6528 70.8046 60.5455L64.556 36.489L79.9494 29.6273C80.9047 29.1959 81.6806 28.4391 82.1425 27.4885C82.6044 26.5378 82.7231 25.4533 82.4779 24.4232C82.2701 23.3881 81.7121 22.4589 80.9002 21.7962C80.0883 21.1334 79.0735 20.7786 78.0309 20.7931H52.5742C52.5335 20.7925 52.4927 20.7925 52.4518 20.7931L4.56124 20.7931ZM46.1039 8.08621C46.1039 6.48691 46.5721 4.92352 47.4491 3.59375C48.3262 2.26398 49.5727 1.22755 51.0312 0.615529C52.4897 0.00350359 54.0945 -0.15663 55.6428 0.155378C57.1912 0.467386 58.6134 1.23752 59.7296 2.3684C60.8459 3.49927 61.6061 4.9401 61.9141 6.50867C62.222 8.07724 62.064 9.7031 61.4599 11.1807C60.8557 12.6582 59.8327 13.9211 58.5201 14.8096C57.2075 15.6982 55.6643 16.1724 54.0857 16.1724C51.9688 16.1724 49.9386 15.3205 48.4417 13.804C46.9449 12.2876 46.1039 10.2308 46.1039 8.08621ZM42.2069 52.4234C42.8304 52.089 57.4712 43.9918 57.4712 33.9883C57.4685 31.6392 56.5463 29.3871 54.9067 27.726C53.2671 26.065 51.0441 25.1306 48.7253 25.128C45.8124 25.128 43.262 26.397 41.6722 28.542C40.0825 26.397 37.5321 25.128 34.6191 25.128C32.3004 25.1306 30.0774 26.065 28.4378 27.726C26.7982 29.3871 25.8759 31.6392 25.8733 33.9883C25.8733 43.9918 40.5141 52.089 41.1376 52.4234C41.3019 52.5129 41.4856 52.5598 41.6722 52.5598C41.8588 52.5598 42.0425 52.5129 42.2069 52.4234Z" fill="#774898"/>
<path d="M93.5731 47.7589C92.836 47.7589 92.237 47.5865 91.7763 47.2416C91.3463 46.8968 91.0852 46.4423 90.9931 45.878C90.9009 45.2824 91.0084 44.624 91.3156 43.903L103.479 16.3944C103.878 15.4853 104.354 14.8427 104.907 14.4665C105.491 14.059 106.151 13.8552 106.888 13.8552C107.595 13.8552 108.224 14.059 108.777 14.4665C109.361 14.8427 109.852 15.4853 110.251 16.3944L122.461 43.903C122.798 44.624 122.921 45.2824 122.829 45.878C122.737 46.4736 122.476 46.9438 122.046 47.2887C121.616 47.6022 121.048 47.7589 120.341 47.7589C119.481 47.7589 118.805 47.5551 118.314 47.1476C117.853 46.7087 117.439 46.0504 117.07 45.1726L114.075 38.0721L116.563 39.7179H97.1207L99.6086 38.0721L96.66 45.1726C96.2607 46.0817 95.846 46.7401 95.416 47.1476C94.986 47.5551 94.3717 47.7589 93.5731 47.7589ZM106.796 20.7676L100.346 36.4263L99.1479 34.9216H114.536L113.384 36.4263L106.888 20.7676H106.796Z" fill="#774898"/>
<path d="M124.218 56.2701C123.542 56.3328 122.989 56.2231 122.559 55.9409C122.129 55.6901 121.837 55.361 121.684 54.9535C121.5 54.5459 121.438 54.1227 121.5 53.6838C121.561 53.2449 121.745 52.8531 122.052 52.5082C122.329 52.1948 122.713 52.0223 123.204 51.991C124.586 51.8656 125.585 51.4581 126.199 50.7684C126.844 50.1101 127.166 49.0912 127.166 47.7119V26.9747C127.166 26.0029 127.412 25.2662 127.904 24.7646C128.426 24.263 129.148 24.0122 130.069 24.0122C130.99 24.0122 131.697 24.263 132.188 24.7646C132.68 25.2662 132.925 26.0029 132.925 26.9747V47.1946C132.925 49.2009 132.603 50.8468 131.958 52.1321C131.344 53.4174 130.391 54.3892 129.101 55.0475C127.842 55.7058 126.214 56.1134 124.218 56.2701ZM130.023 19.6861C128.948 19.6861 128.103 19.4196 127.489 18.8867C126.905 18.3224 126.614 17.5544 126.614 16.5825C126.614 15.5794 126.905 14.8113 127.489 14.2784C128.103 13.7455 128.948 13.479 130.023 13.479C131.129 13.479 131.973 13.7455 132.557 14.2784C133.14 14.8113 133.432 15.5794 133.432 16.5825C133.432 17.5544 133.14 18.3224 132.557 18.8867C131.973 19.4196 131.129 19.6861 130.023 19.6861Z" fill="#774898"/>
<path d="M147.06 47.8529C145.186 47.8529 143.635 47.5081 142.407 46.8184C141.178 46.0974 140.257 45.0316 139.642 43.6209C139.059 42.2102 138.767 40.4546 138.767 38.3543V26.9747C138.767 25.9715 139.013 25.2348 139.504 24.7646C139.996 24.263 140.702 24.0122 141.623 24.0122C142.545 24.0122 143.251 24.263 143.743 24.7646C144.265 25.2348 144.526 25.9715 144.526 26.9747V38.4483C144.526 40.0785 144.849 41.2854 145.494 42.0691C146.139 42.8528 147.167 43.2447 148.58 43.2447C150.116 43.2447 151.375 42.7118 152.358 41.6459C153.341 40.5487 153.833 39.1066 153.833 37.3198V26.9747C153.833 25.9715 154.078 25.2348 154.57 24.7646C155.061 24.263 155.768 24.0122 156.689 24.0122C157.611 24.0122 158.317 24.263 158.808 24.7646C159.331 25.2348 159.592 25.9715 159.592 26.9747V44.7494C159.592 46.7557 158.655 47.7589 156.781 47.7589C155.891 47.7589 155.199 47.5081 154.708 47.0065C154.217 46.4736 153.971 45.7212 153.971 44.7494V41.1757L154.616 42.5864C153.971 44.2792 152.988 45.5802 151.667 46.4893C150.377 47.3984 148.841 47.8529 147.06 47.8529Z" fill="#774898"/>
<path d="M174.247 47.8529C172.282 47.8529 170.546 47.367 169.041 46.3952C167.567 45.4234 166.415 44.0441 165.586 42.2572C164.756 40.439 164.342 38.3072 164.342 35.862C164.342 33.3855 164.756 31.2694 165.586 29.5139C166.415 27.727 167.567 26.3477 169.041 25.3759C170.546 24.4041 172.282 23.9182 174.247 23.9182C176.121 23.9182 177.749 24.3884 179.131 25.3289C180.544 26.2693 181.496 27.5076 181.988 29.0437H181.481V16.8177C181.481 15.8458 181.726 15.1091 182.218 14.6076C182.709 14.106 183.416 13.8552 184.337 13.8552C185.259 13.8552 185.965 14.106 186.457 14.6076C186.979 15.1091 187.24 15.8458 187.24 16.8177V44.7494C187.24 45.7212 186.994 46.4736 186.503 47.0065C186.011 47.5081 185.305 47.7589 184.383 47.7589C183.462 47.7589 182.755 47.5081 182.264 47.0065C181.773 46.4736 181.527 45.7212 181.527 44.7494V41.0816L182.034 42.4923C181.573 44.1224 180.636 45.4234 179.223 46.3952C177.81 47.367 176.152 47.8529 174.247 47.8529ZM175.86 43.3857C176.996 43.3857 177.995 43.1036 178.855 42.5393C179.715 41.9751 180.375 41.1443 180.836 40.0471C181.327 38.9185 181.573 37.5235 181.573 35.862C181.573 33.3541 181.051 31.4889 180.006 30.2663C178.962 29.0123 177.58 28.3854 175.86 28.3854C174.723 28.3854 173.725 28.6675 172.865 29.2318C172.005 29.7647 171.329 30.5954 170.838 31.724C170.377 32.8212 170.147 34.2006 170.147 35.862C170.147 38.3386 170.669 40.2195 171.713 41.5048C172.758 42.7588 174.14 43.3857 175.86 43.3857Z" fill="#774898"/>
<path d="M200.629 47.8529C199.001 47.8529 197.542 47.5395 196.252 46.9125C194.993 46.2542 193.994 45.3764 193.257 44.2792C192.551 43.182 192.198 41.9437 192.198 40.5644C192.198 38.8715 192.628 37.5392 193.488 36.5674C194.348 35.5642 195.745 34.8432 197.68 34.4043C199.615 33.9654 202.211 33.746 205.467 33.746H207.77V37.1317H205.513C203.608 37.1317 202.088 37.2257 200.951 37.4138C199.815 37.6019 199.001 37.9311 198.51 38.4013C198.049 38.8402 197.818 39.4671 197.818 40.2822C197.818 41.3167 198.172 42.1631 198.878 42.8215C199.585 43.4798 200.567 43.809 201.827 43.809C202.84 43.809 203.731 43.5738 204.499 43.1036C205.298 42.602 205.927 41.928 206.388 41.0816C206.849 40.2352 207.079 39.2634 207.079 38.1662V32.7585C207.079 31.1911 206.741 30.0625 206.065 29.3728C205.39 28.6832 204.253 28.3383 202.656 28.3383C201.765 28.3383 200.798 28.4481 199.754 28.6675C198.74 28.8869 197.665 29.2631 196.528 29.7961C195.945 30.0782 195.423 30.1566 194.962 30.0312C194.532 29.9058 194.194 29.655 193.948 29.2788C193.703 28.8713 193.58 28.4324 193.58 27.9621C193.58 27.4919 193.703 27.0374 193.948 26.5985C194.194 26.1282 194.609 25.7834 195.192 25.564C196.605 24.9683 197.957 24.5451 199.247 24.2943C200.567 24.0436 201.765 23.9182 202.84 23.9182C205.052 23.9182 206.864 24.263 208.277 24.9527C209.721 25.6423 210.796 26.6925 211.502 28.1032C212.208 29.4826 212.562 31.2694 212.562 33.4639V44.7494C212.562 45.7212 212.331 46.4736 211.871 47.0065C211.41 47.5081 210.749 47.7589 209.889 47.7589C209.029 47.7589 208.354 47.5081 207.862 47.0065C207.402 46.4736 207.171 45.7212 207.171 44.7494V42.4923H207.54C207.325 43.5895 206.895 44.5457 206.25 45.3607C205.635 46.1444 204.852 46.7557 203.9 47.1946C202.948 47.6335 201.858 47.8529 200.629 47.8529Z" fill="#774898"/>
<path d="M238.333 47.8529C236.705 47.8529 235.246 47.5395 233.956 46.9125C232.697 46.2542 231.698 45.3764 230.961 44.2792C230.255 43.182 229.901 41.9437 229.901 40.5644C229.901 38.8715 230.331 37.5392 231.191 36.5674C232.052 35.5642 233.449 34.8432 235.384 34.4043C237.319 33.9654 239.915 33.746 243.17 33.746H245.474V37.1317H243.216C241.312 37.1317 239.792 37.2257 238.655 37.4138C237.519 37.6019 236.705 37.9311 236.213 38.4013C235.753 38.8402 235.522 39.4671 235.522 40.2822C235.522 41.3167 235.876 42.1631 236.582 42.8215C237.288 43.4798 238.271 43.809 239.531 43.809C240.544 43.809 241.435 43.5738 242.203 43.1036C243.001 42.602 243.631 41.928 244.092 41.0816C244.552 40.2352 244.783 39.2634 244.783 38.1662V32.7585C244.783 31.1911 244.445 30.0625 243.769 29.3728C243.094 28.6832 241.957 28.3383 240.36 28.3383C239.469 28.3383 238.502 28.4481 237.457 28.6675C236.444 28.8869 235.369 29.2631 234.232 29.7961C233.649 30.0782 233.127 30.1566 232.666 30.0312C232.236 29.9058 231.898 29.655 231.652 29.2788C231.406 28.8713 231.284 28.4324 231.284 27.9621C231.284 27.4919 231.406 27.0374 231.652 26.5985C231.898 26.1282 232.313 25.7834 232.896 25.564C234.309 24.9683 235.66 24.5451 236.951 24.2943C238.271 24.0436 239.469 23.9182 240.544 23.9182C242.756 23.9182 244.568 24.263 245.981 24.9527C247.424 25.6423 248.499 26.6925 249.206 28.1032C249.912 29.4826 250.265 31.2694 250.265 33.4639V44.7494C250.265 45.7212 250.035 46.4736 249.574 47.0065C249.114 47.5081 248.453 47.7589 247.593 47.7589C246.733 47.7589 246.058 47.5081 245.566 47.0065C245.105 46.4736 244.875 45.7212 244.875 44.7494V42.4923H245.244C245.029 43.5895 244.599 44.5457 243.954 45.3607C243.339 46.1444 242.556 46.7557 241.604 47.1946C240.652 47.6335 239.561 47.8529 238.333 47.8529Z" fill="#774898"/>
<path d="M258.967 47.7119C258.046 47.7119 257.34 47.4297 256.848 46.8655C256.357 46.3012 256.111 45.5175 256.111 44.5143V27.2568C256.111 26.2223 256.357 25.4386 256.848 24.9056C257.34 24.3414 258.046 24.0592 258.967 24.0592C259.889 24.0592 260.595 24.3414 261.087 24.9056C261.609 25.4386 261.87 26.2223 261.87 27.2568V44.5143C261.87 45.5175 261.624 46.3012 261.133 46.8655C260.641 47.4297 259.92 47.7119 258.967 47.7119ZM261.133 21.0497C260.826 21.4886 260.457 21.7394 260.027 21.8021C259.597 21.8648 259.182 21.7864 258.783 21.567C258.384 21.3476 258.092 21.0341 257.908 20.6265C257.754 20.219 257.8 19.7644 258.046 19.2629L261.547 12.2564C261.824 11.6608 262.192 11.2846 262.653 11.1279C263.114 10.9398 263.59 10.9084 264.081 11.0338C264.573 11.1592 264.988 11.3943 265.325 11.7392C265.694 12.084 265.909 12.5072 265.97 13.0088C266.063 13.479 265.94 13.9649 265.602 14.4665L261.133 21.0497Z" fill="#774898"/>
</svg>
