<svg width="194" height="35" viewBox="0 0 194 35" fill="none" xmlns="http://www.w3.org/2000/svg">
<path fill-rule="evenodd" clip-rule="evenodd" d="M33.9338 0.261383C33.4252 0.0212653 32.8549 -0.0559587 32.3008 0.0402642C31.7467 0.136487 31.2358 0.401463 30.8379 0.798982C30.814 0.822875 30.7936 0.845062 30.7731 0.868955L27.8274 4.26522C24.8072 2.37553 21.3164 1.37345 17.7538 1.37345C14.1912 1.37345 10.7004 2.37553 7.6802 4.26522L4.72596 0.868955C4.70548 0.845062 4.685 0.822875 4.66111 0.798982C4.26325 0.401463 3.75236 0.136487 3.19824 0.0402642C2.64411 -0.0559587 2.0738 0.0212653 1.56522 0.261383C1.09039 0.494549 0.691363 0.8575 0.414375 1.30817C0.137388 1.75884 -0.00621598 2.27878 0.000206359 2.80773V17.7479C0.000206359 26.1105 6.8371 33.0447 15.6264 34.0158C15.7222 34.0264 15.8191 34.0166 15.9108 33.9871C16.0025 33.9575 16.0869 33.9089 16.1585 33.8445C16.23 33.78 16.2872 33.7011 16.3261 33.613C16.365 33.5248 16.3848 33.4295 16.3842 33.3331V27.8718L14.0938 25.5798C13.8342 25.3278 13.6819 24.9852 13.6689 24.6236C13.6559 24.262 13.783 23.9093 14.0239 23.6393C14.1491 23.5059 14.2998 23.3991 14.4671 23.3251C14.6345 23.2511 14.8149 23.2115 14.9978 23.2087C15.1808 23.2058 15.3624 23.2397 15.5319 23.3084C15.7015 23.3771 15.8555 23.4792 15.9848 23.6086L17.7495 25.3732L19.5142 23.6068C19.6435 23.4775 19.7976 23.3754 19.9671 23.3067C20.1367 23.238 20.3183 23.2041 20.5012 23.207C20.6841 23.2098 20.8646 23.2494 21.0319 23.3234C21.1992 23.3974 21.3499 23.5042 21.4752 23.6376C21.716 23.9076 21.8432 24.2603 21.8301 24.6219C21.8171 24.9835 21.6649 25.326 21.4052 25.578L19.1148 27.8701V33.3314C19.1143 33.4278 19.1341 33.5231 19.173 33.6113C19.2119 33.6994 19.269 33.7783 19.3406 33.8428C19.4121 33.9072 19.4966 33.9558 19.5883 33.9854C19.6799 34.0149 19.7769 34.0247 19.8726 34.0141C28.6619 33.043 35.4988 26.1105 35.4988 17.7479V2.80773C35.5052 2.27878 35.3616 1.75884 35.0847 1.30817C34.8077 0.8575 34.4086 0.494549 33.9338 0.261383ZM10.8825 16.066C10.8825 16.0875 10.888 16.1086 10.8983 16.1274L12.169 18.427C12.6 19.2071 12.0357 20.1635 11.1445 20.1635C10.7044 20.1635 10.3015 19.9165 10.1017 19.5244L9.18984 17.7349C9.18561 17.7266 9.17709 17.7213 9.16778 17.7213C9.15847 17.7213 9.14994 17.7266 9.14571 17.7349L8.23803 19.5163C8.03568 19.9134 7.62764 20.1635 7.18192 20.1635C6.27339 20.1635 5.70264 19.1833 6.15103 18.3932L7.4367 16.1275C7.4474 16.1086 7.45303 16.0873 7.45303 16.0656C7.45303 16.0443 7.4476 16.0234 7.43726 16.0048L6.25339 13.8737C5.83165 13.1145 6.38062 12.1815 7.24909 12.1815C7.68878 12.1815 8.08921 12.4346 8.2779 12.8317L9.14609 14.6591C9.15007 14.6675 9.15851 14.6728 9.16778 14.6728C9.17705 14.6728 9.18549 14.6675 9.18946 14.6591L10.0577 12.8317C10.2463 12.4346 10.6468 12.1815 11.0865 12.1815C11.9549 12.1815 12.5039 13.1145 12.0822 13.8737L10.8985 16.0044C10.888 16.0233 10.8825 16.0445 10.8825 16.066ZM25.0524 13.3598C23.9489 13.7492 23.2108 14.7922 23.2108 15.9624C23.2108 17.1327 23.9489 18.1757 25.0524 18.5651L29.0135 19.9628C29.8723 20.2658 30.7727 19.6288 30.7727 18.7181C30.7727 18.1659 30.4289 17.672 29.911 17.4803L25.8815 15.9885C25.8707 15.9844 25.8634 15.9741 25.8634 15.9625C25.8634 15.9508 25.8707 15.9404 25.8816 15.9364L29.9018 14.4639C30.4249 14.2723 30.7727 13.7745 30.7727 13.2174C30.7727 12.3016 29.8672 11.6608 29.0035 11.9656L25.0524 13.3598Z" fill="#B9B9B9"/>
<path d="M55.7237 27.26C53.5875 27.26 51.7523 26.8351 50.2181 25.9855C48.7034 25.1165 47.5381 23.9 46.7225 22.3358C45.9069 20.7524 45.499 18.8889 45.499 16.7455C45.499 15.1427 45.7321 13.7041 46.1982 12.4296C46.6642 11.1358 47.3342 10.0351 48.2081 9.12755C49.082 8.20065 50.1502 7.49583 51.4125 7.01307C52.6942 6.511 54.1313 6.25996 55.7237 6.25996C56.7918 6.25996 57.8405 6.39514 58.8698 6.66548C59.8991 6.93583 60.8021 7.32203 61.5789 7.8241C61.9867 8.07514 62.2586 8.3841 62.3945 8.751C62.5305 9.09859 62.5596 9.44617 62.4819 9.79376C62.4042 10.122 62.2392 10.402 61.9867 10.6338C61.7537 10.8655 61.4527 11.0007 61.0837 11.0393C60.7341 11.0586 60.3457 10.9331 59.9185 10.6627C59.3164 10.2765 58.6659 9.99652 57.9668 9.82272C57.2676 9.64893 56.5588 9.56203 55.8402 9.56203C54.4614 9.56203 53.2962 9.84203 52.3446 10.402C51.393 10.962 50.6745 11.7731 50.189 12.8351C49.7035 13.8972 49.4607 15.2007 49.4607 16.7455C49.4607 18.271 49.7035 19.5744 50.189 20.6558C50.6745 21.7372 51.393 22.5579 52.3446 23.1179C53.2962 23.6779 54.4614 23.9579 55.8402 23.9579C56.5782 23.9579 57.3065 23.871 58.025 23.6972C58.7436 23.5041 59.4233 23.2144 60.0641 22.8282C60.4914 22.5772 60.8701 22.471 61.2002 22.5096C61.5498 22.5289 61.8411 22.6448 62.0741 22.8572C62.3071 23.0696 62.4625 23.34 62.5402 23.6682C62.6179 23.9772 62.5985 24.3055 62.4819 24.6531C62.3654 24.9813 62.1324 25.271 61.7828 25.522C61.006 26.082 60.0738 26.5165 58.9863 26.8255C57.9182 27.1151 56.8307 27.26 55.7237 27.26Z" fill="#B9B9B9"/>
<path d="M71.0908 27.26C69.6149 27.26 68.3332 26.9607 67.2456 26.362C66.1581 25.7634 65.3133 24.9138 64.7113 23.8131C64.1093 22.6931 63.8083 21.38 63.8083 19.8738C63.8083 18.7344 63.9733 17.7207 64.3035 16.8324C64.653 15.9248 65.1483 15.1524 65.7891 14.5151C66.43 13.8586 67.1971 13.3662 68.0904 13.0379C68.9837 12.6903 69.9839 12.5165 71.0908 12.5165C72.5667 12.5165 73.8485 12.8158 74.936 13.4144C76.0235 14.0131 76.8683 14.8627 77.4703 15.9634C78.0723 17.0641 78.3734 18.3675 78.3734 19.8738C78.3734 21.0131 78.1986 22.0365 77.849 22.9441C77.5189 23.8517 77.0334 24.6338 76.3925 25.2903C75.7516 25.9275 74.9845 26.42 74.0912 26.7675C73.1979 27.0958 72.1978 27.26 71.0908 27.26ZM71.0908 24.5082C71.8094 24.5082 72.4405 24.3344 72.9843 23.9869C73.528 23.6393 73.9456 23.1275 74.2369 22.4517C74.5476 21.7565 74.703 20.8972 74.703 19.8738C74.703 18.3289 74.3728 17.18 73.7125 16.4269C73.0522 15.6544 72.1783 15.2682 71.0908 15.2682C70.3723 15.2682 69.7411 15.442 69.1973 15.7896C68.6536 16.1179 68.2263 16.6296 67.9156 17.3248C67.6243 18.0007 67.4787 18.8503 67.4787 19.8738C67.4787 21.3993 67.8088 22.5579 68.4691 23.3496C69.1294 24.122 70.0033 24.5082 71.0908 24.5082Z" fill="#B9B9B9"/>
<path d="M86.8552 27.26C85.6124 27.26 84.5151 26.9607 83.5635 26.362C82.6314 25.7634 81.9031 24.9138 81.3788 23.8131C80.8544 22.6931 80.5923 21.38 80.5923 19.8738C80.5923 18.3482 80.8544 17.0448 81.3788 15.9634C81.9031 14.8627 82.6314 14.0131 83.5635 13.4144C84.5151 12.8158 85.6124 12.5165 86.8552 12.5165C88.0399 12.5165 89.0691 12.8062 89.943 13.3855C90.8364 13.9648 91.4384 14.7275 91.7491 15.6738H91.4287V8.14272C91.4287 7.5441 91.584 7.09031 91.8948 6.78134C92.2055 6.47238 92.6522 6.31789 93.2348 6.31789C93.8174 6.31789 94.264 6.47238 94.5747 6.78134C94.9049 7.09031 95.07 7.5441 95.07 8.14272V25.3482C95.07 25.9469 94.9146 26.4103 94.6039 26.7386C94.2932 27.0475 93.8465 27.202 93.2639 27.202C92.6813 27.202 92.2346 27.0475 91.9239 26.7386C91.6132 26.4103 91.4578 25.9469 91.4578 25.3482V23.0889L91.7782 23.9579C91.4869 24.962 90.8946 25.7634 90.0013 26.362C89.108 26.9607 88.0593 27.26 86.8552 27.26ZM87.8748 24.5082C88.5934 24.5082 89.2245 24.3344 89.7683 23.9869C90.312 23.6393 90.7296 23.1275 91.0209 22.4517C91.3316 21.7565 91.4869 20.8972 91.4869 19.8738C91.4869 18.3289 91.1568 17.18 90.4965 16.4269C89.8362 15.6544 88.9623 15.2682 87.8748 15.2682C87.1563 15.2682 86.5251 15.442 85.9813 15.7896C85.4376 16.1179 85.0103 16.6296 84.6996 17.3248C84.4083 18.0007 84.2627 18.8503 84.2627 19.8738C84.2627 21.3993 84.5928 22.5579 85.2531 23.3496C85.9134 24.122 86.7873 24.5082 87.8748 24.5082Z" fill="#B9B9B9"/>
<path d="M103.535 27.26C102.506 27.26 101.584 27.0669 100.768 26.6807C99.9719 26.2751 99.3407 25.7344 98.8746 25.0586C98.428 24.3827 98.2046 23.62 98.2046 22.7703C98.2046 21.7275 98.4765 20.9069 99.0203 20.3082C99.5641 19.6903 100.448 19.2462 101.671 18.9758C102.895 18.7055 104.536 18.5703 106.594 18.5703H108.051V20.6558H106.623C105.419 20.6558 104.458 20.7138 103.739 20.8296C103.021 20.9455 102.506 21.1482 102.195 21.4379C101.904 21.7082 101.759 22.0944 101.759 22.5965C101.759 23.2338 101.982 23.7551 102.429 24.1607C102.875 24.5662 103.497 24.7689 104.293 24.7689C104.934 24.7689 105.497 24.6241 105.982 24.3344C106.487 24.0255 106.885 23.6103 107.177 23.0889C107.468 22.5675 107.614 21.9689 107.614 21.2931V17.962C107.614 16.9965 107.4 16.3013 106.973 15.8765C106.546 15.4517 105.827 15.2393 104.817 15.2393C104.254 15.2393 103.642 15.3069 102.982 15.442C102.341 15.5772 101.661 15.8089 100.943 16.1372C100.574 16.311 100.244 16.3593 99.9524 16.282C99.6806 16.2048 99.4669 16.0503 99.3116 15.8186C99.1562 15.5675 99.0785 15.2972 99.0785 15.0075C99.0785 14.7179 99.1562 14.4379 99.3116 14.1675C99.4669 13.8779 99.7291 13.6655 100.098 13.5303C100.991 13.1634 101.846 12.9027 102.662 12.7482C103.497 12.5938 104.254 12.5165 104.934 12.5165C106.332 12.5165 107.478 12.7289 108.371 13.1538C109.284 13.5786 109.964 14.2255 110.41 15.0944C110.857 15.9441 111.08 17.0448 111.08 18.3965V25.3482C111.08 25.9469 110.935 26.4103 110.643 26.7386C110.352 27.0475 109.934 27.202 109.391 27.202C108.847 27.202 108.42 27.0475 108.109 26.7386C107.818 26.4103 107.672 25.9469 107.672 25.3482V23.9579H107.905C107.769 24.6338 107.497 25.2227 107.089 25.7248C106.701 26.2075 106.206 26.5841 105.604 26.8544C105.002 27.1248 104.312 27.26 103.535 27.26Z" fill="#B9B9B9"/>
<path d="M124.957 27.202C124.355 27.202 123.879 27.0379 123.529 26.7096C123.199 26.362 123.034 25.8696 123.034 25.2324V8.51927C123.034 7.88203 123.199 7.39927 123.529 7.071C123.879 6.72341 124.374 6.54962 125.015 6.54962H135.181C135.686 6.54962 136.065 6.67514 136.317 6.92617C136.57 7.17721 136.696 7.53445 136.696 7.99789C136.696 8.48065 136.57 8.8572 136.317 9.12755C136.065 9.37858 135.686 9.5041 135.181 9.5041H126.763V15.2682H134.57C135.055 15.2682 135.424 15.3938 135.677 15.6448C135.948 15.8958 136.084 16.2531 136.084 16.7165C136.084 17.1993 135.948 17.5758 135.677 17.8462C135.424 18.0972 135.055 18.2227 134.57 18.2227H126.763V25.2324C126.763 26.5455 126.161 27.202 124.957 27.202Z" fill="#B9B9B9"/>
<path d="M145.026 27.26C143.55 27.26 142.268 26.9607 141.181 26.362C140.093 25.7634 139.248 24.9138 138.646 23.8131C138.044 22.6931 137.743 21.38 137.743 19.8738C137.743 18.7344 137.908 17.7207 138.238 16.8324C138.588 15.9248 139.083 15.1524 139.724 14.5151C140.365 13.8586 141.132 13.3662 142.025 13.0379C142.919 12.6903 143.919 12.5165 145.026 12.5165C146.502 12.5165 147.783 12.8158 148.871 13.4144C149.958 14.0131 150.803 14.8627 151.405 15.9634C152.007 17.0641 152.308 18.3675 152.308 19.8738C152.308 21.0131 152.133 22.0365 151.784 22.9441C151.454 23.8517 150.968 24.6338 150.327 25.2903C149.687 25.9275 148.919 26.42 148.026 26.7675C147.133 27.0958 146.133 27.26 145.026 27.26ZM145.026 24.5082C145.744 24.5082 146.375 24.3344 146.919 23.9869C147.463 23.6393 147.88 23.1275 148.172 22.4517C148.483 21.7565 148.638 20.8972 148.638 19.8738C148.638 18.3289 148.308 17.18 147.647 16.4269C146.987 15.6544 146.113 15.2682 145.026 15.2682C144.307 15.2682 143.676 15.442 143.132 15.7896C142.588 16.1179 142.161 16.6296 141.851 17.3248C141.559 18.0007 141.414 18.8503 141.414 19.8738C141.414 21.3993 141.744 22.5579 142.404 23.3496C143.064 24.122 143.938 24.5082 145.026 24.5082Z" fill="#B9B9B9"/>
<path d="M157.968 27.202C157.385 27.202 156.929 27.0475 156.599 26.7386C156.288 26.4103 156.133 25.9469 156.133 25.3482V15.5289H154.793C154.327 15.5289 153.967 15.4131 153.715 15.1813C153.462 14.9303 153.336 14.5924 153.336 14.1675C153.336 13.7234 153.462 13.3855 153.715 13.1538C153.967 12.922 154.327 12.8062 154.793 12.8062H157.181L156.133 13.762V12.7772C156.133 10.7882 156.638 9.30134 157.648 8.31651C158.657 7.31238 160.114 6.72341 162.017 6.54962L163.007 6.46272C163.396 6.4241 163.707 6.49169 163.94 6.66548C164.173 6.81996 164.328 7.03238 164.406 7.30272C164.483 7.55376 164.493 7.81445 164.435 8.08479C164.377 8.35514 164.25 8.59652 164.056 8.80893C163.881 9.00203 163.648 9.10824 163.357 9.12755L162.949 9.15652C161.842 9.23376 161.036 9.51376 160.531 9.99652C160.026 10.4793 159.774 11.2131 159.774 12.1979V13.2696L159.308 12.8062H162.25C162.716 12.8062 163.075 12.922 163.328 13.1538C163.58 13.3855 163.707 13.7234 163.707 14.1675C163.707 14.5924 163.58 14.9303 163.328 15.1813C163.075 15.4131 162.716 15.5289 162.25 15.5289H159.774V25.3482C159.774 26.5841 159.172 27.202 157.968 27.202Z" fill="#B9B9B9"/>
<path d="M171.909 27.26C170.433 27.26 169.151 26.9607 168.063 26.362C166.976 25.7634 166.131 24.9138 165.529 23.8131C164.927 22.6931 164.626 21.38 164.626 19.8738C164.626 18.7344 164.791 17.7207 165.121 16.8324C165.471 15.9248 165.966 15.1524 166.607 14.5151C167.248 13.8586 168.015 13.3662 168.908 13.0379C169.801 12.6903 170.802 12.5165 171.909 12.5165C173.384 12.5165 174.666 12.8158 175.754 13.4144C176.841 14.0131 177.686 14.8627 178.288 15.9634C178.89 17.0641 179.191 18.3675 179.191 19.8738C179.191 21.0131 179.016 22.0365 178.667 22.9441C178.337 23.8517 177.851 24.6338 177.21 25.2903C176.569 25.9275 175.802 26.42 174.909 26.7675C174.016 27.0958 173.016 27.26 171.909 27.26ZM171.909 24.5082C172.627 24.5082 173.258 24.3344 173.802 23.9869C174.346 23.6393 174.763 23.1275 175.055 22.4517C175.365 21.7565 175.521 20.8972 175.521 19.8738C175.521 18.3289 175.191 17.18 174.53 16.4269C173.87 15.6544 172.996 15.2682 171.909 15.2682C171.19 15.2682 170.559 15.442 170.015 15.7896C169.471 16.1179 169.044 16.6296 168.733 17.3248C168.442 18.0007 168.296 18.8503 168.296 19.8738C168.296 21.3993 168.627 22.5579 169.287 23.3496C169.947 24.122 170.821 24.5082 171.909 24.5082Z" fill="#B9B9B9"/>
<path d="M187.411 27.26C186.576 27.26 185.692 27.1731 184.76 26.9993C183.828 26.8255 182.993 26.5262 182.255 26.1013C181.944 25.9082 181.721 25.6862 181.585 25.4351C181.468 25.1648 181.42 24.9041 181.439 24.6531C181.478 24.3827 181.575 24.151 181.73 23.9579C181.905 23.7648 182.119 23.6393 182.371 23.5813C182.643 23.5234 182.934 23.5717 183.245 23.7262C184.022 24.0931 184.75 24.3538 185.43 24.5082C186.11 24.6434 186.78 24.711 187.44 24.711C188.372 24.711 189.062 24.5565 189.508 24.2475C189.974 23.9193 190.207 23.4944 190.207 22.9731C190.207 22.5289 190.052 22.191 189.741 21.9593C189.45 21.7082 189.003 21.5248 188.401 21.4089L185.488 20.8586C184.284 20.6269 183.362 20.1924 182.721 19.5551C182.099 18.8986 181.789 18.0586 181.789 17.0351C181.789 16.1082 182.041 15.3069 182.546 14.631C183.07 13.9551 183.789 13.4338 184.702 13.0669C185.614 12.7 186.663 12.5165 187.848 12.5165C188.702 12.5165 189.498 12.6131 190.236 12.8062C190.994 12.98 191.722 13.26 192.421 13.6462C192.713 13.8007 192.907 14.0034 193.004 14.2544C193.12 14.5055 193.149 14.7662 193.091 15.0365C193.033 15.2875 192.916 15.5193 192.742 15.7317C192.567 15.9248 192.344 16.0503 192.072 16.1082C191.819 16.1469 191.528 16.0889 191.198 15.9344C190.596 15.6255 190.013 15.4034 189.45 15.2682C188.906 15.1331 188.382 15.0655 187.877 15.0655C186.925 15.0655 186.216 15.2296 185.75 15.5579C185.304 15.8862 185.08 16.3207 185.08 16.8613C185.08 17.2669 185.216 17.6048 185.488 17.8751C185.76 18.1455 186.178 18.3289 186.741 18.4255L189.654 18.9758C190.916 19.2075 191.868 19.6324 192.509 20.2503C193.169 20.8682 193.499 21.6986 193.499 22.7413C193.499 24.151 192.946 25.2613 191.839 26.0724C190.732 26.8641 189.256 27.26 187.411 27.26Z" fill="#B9B9B9"/>
<path d="M113.299 27.76C113.072 27.76 112.879 27.6866 112.719 27.54C112.572 27.4066 112.499 27.2333 112.499 27.02C112.499 26.8066 112.572 26.6266 112.719 26.48C112.879 26.3333 113.072 26.26 113.299 26.26H121.239C121.466 26.26 121.652 26.3333 121.799 26.48C121.946 26.6266 122.019 26.8066 122.019 27.02C122.019 27.2333 121.946 27.4066 121.799 27.54C121.652 27.6866 121.466 27.76 121.239 27.76H113.299Z" fill="#B9B9B9"/>
</svg>
